<?xml version="1.0" encoding="UTF-8" standalone="no"?>
<!DOCTYPE svg PUBLIC "-//W3C//DTD SVG 1.1//EN" "http://www.w3.org/Graphics/SVG/1.1/DTD/svg11.dtd">
<svg width="100%" height="100%" viewBox="0 0 3127 1723" version="1.1"
	xmlns="http://www.w3.org/2000/svg" xmlns:xlink="http://www.w3.org/1999/xlink" xml:space="preserve"
	xmlns:serif="http://www.serif.com/"
	style="fill-rule:evenodd;clip-rule:evenodd;stroke-linejoin:round;stroke-miterlimit:2;">
    <g id="Artboard1" transform="matrix(0.989557,0,0,0.884951,-3609.9,-5685.81)">
        <rect x="3648" y="6425" width="3160" height="1947" style="fill:none;"/>
        <g transform="matrix(1.01055,0,0,1.13001,-2388.68,1724.45)">
            <g transform="matrix(1200,0,0,1200,6023.96,5121.61)">
                <path d="M0.209,0.087C0.174,0.087 0.143,0.077 0.115,0.058C0.086,0.038 0.064,0.01 0.047,-0.028C0.03,-0.065 0.022,-0.109 0.022,-0.161C0.022,-0.212 0.03,-0.264 0.046,-0.317C0.062,-0.37 0.084,-0.42 0.112,-0.468C0.139,-0.516 0.171,-0.559 0.206,-0.597C0.241,-0.634 0.279,-0.664 0.318,-0.686C0.357,-0.708 0.395,-0.719 0.433,-0.719C0.458,-0.719 0.479,-0.714 0.494,-0.703C0.509,-0.692 0.52,-0.679 0.527,-0.662C0.534,-0.645 0.537,-0.626 0.537,-0.606C0.537,-0.583 0.533,-0.56 0.525,-0.538C0.517,-0.515 0.506,-0.497 0.493,-0.482C0.48,-0.467 0.465,-0.46 0.449,-0.46C0.444,-0.46 0.438,-0.462 0.433,-0.465C0.427,-0.468 0.422,-0.474 0.418,-0.483C0.427,-0.49 0.438,-0.502 0.451,-0.519C0.463,-0.536 0.474,-0.556 0.483,-0.577C0.492,-0.598 0.496,-0.618 0.496,-0.636C0.496,-0.651 0.492,-0.664 0.483,-0.674C0.474,-0.684 0.458,-0.689 0.436,-0.689C0.407,-0.689 0.378,-0.677 0.347,-0.654C0.316,-0.631 0.286,-0.6 0.257,-0.561C0.228,-0.522 0.201,-0.478 0.178,-0.43C0.155,-0.382 0.136,-0.333 0.123,-0.283C0.109,-0.233 0.102,-0.186 0.102,-0.141C0.102,-0.08 0.115,-0.033 0.14,0.002C0.165,0.036 0.197,0.053 0.236,0.053C0.262,0.053 0.287,0.044 0.31,0.025C0.333,0.006 0.354,-0.019 0.372,-0.05C0.39,-0.08 0.405,-0.113 0.416,-0.148C0.427,-0.183 0.433,-0.217 0.436,-0.25C0.411,-0.255 0.391,-0.259 0.376,-0.261C0.361,-0.262 0.346,-0.263 0.333,-0.263C0.324,-0.263 0.315,-0.263 0.306,-0.263C0.296,-0.262 0.285,-0.262 0.272,-0.262C0.277,-0.281 0.285,-0.295 0.297,-0.303C0.308,-0.31 0.323,-0.314 0.34,-0.314C0.359,-0.314 0.378,-0.311 0.399,-0.305C0.419,-0.298 0.439,-0.291 0.458,-0.284C0.477,-0.277 0.494,-0.271 0.509,-0.267L0.502,-0.235C0.489,-0.202 0.479,-0.172 0.471,-0.148C0.463,-0.123 0.457,-0.1 0.453,-0.082C0.448,-0.063 0.445,-0.046 0.444,-0.031C0.442,-0.016 0.441,-0.003 0.441,0.009C0.441,0.022 0.442,0.035 0.443,0.048C0.444,0.061 0.444,0.074 0.445,0.087C0.434,0.082 0.425,0.077 0.417,0.071C0.408,0.064 0.402,0.056 0.398,0.047C0.393,0.038 0.391,0.027 0.391,0.015C0.391,0.008 0.392,0 0.393,-0.007C0.394,-0.014 0.395,-0.022 0.398,-0.031C0.374,0.002 0.346,0.03 0.315,0.053C0.284,0.076 0.248,0.087 0.209,0.087Z" style="fill-rule:nonzero;"/>
            </g>
            <g transform="matrix(1200,0,0,1200,6679.16,5121.61)">
                <path d="M0.173,0.026C0.15,0.026 0.133,0.02 0.12,0.008C0.107,-0.004 0.1,-0.02 0.1,-0.039C0.1,-0.059 0.105,-0.08 0.114,-0.102C0.123,-0.124 0.133,-0.146 0.142,-0.168C0.151,-0.189 0.155,-0.209 0.155,-0.226C0.155,-0.247 0.149,-0.263 0.137,-0.274C0.124,-0.284 0.112,-0.293 0.099,-0.302C0.084,-0.263 0.068,-0.225 0.051,-0.19C0.034,-0.155 0.021,-0.128 0.01,-0.11L0.001,-0.127C0.01,-0.144 0.023,-0.17 0.038,-0.203C0.053,-0.236 0.067,-0.274 0.082,-0.317C0.075,-0.324 0.072,-0.332 0.072,-0.341C0.072,-0.361 0.078,-0.377 0.089,-0.39C0.1,-0.403 0.109,-0.409 0.114,-0.409C0.121,-0.409 0.126,-0.406 0.127,-0.4C0.128,-0.393 0.128,-0.388 0.128,-0.385C0.128,-0.382 0.126,-0.375 0.123,-0.366C0.119,-0.356 0.117,-0.35 0.117,-0.348C0.117,-0.339 0.122,-0.33 0.133,-0.323C0.143,-0.315 0.155,-0.306 0.168,-0.297C0.181,-0.287 0.193,-0.275 0.204,-0.262C0.214,-0.248 0.219,-0.23 0.219,-0.209C0.219,-0.189 0.215,-0.169 0.207,-0.148C0.198,-0.127 0.19,-0.108 0.182,-0.089C0.173,-0.07 0.169,-0.054 0.169,-0.04C0.169,-0.028 0.172,-0.02 0.178,-0.016C0.184,-0.012 0.191,-0.01 0.199,-0.01C0.215,-0.01 0.232,-0.015 0.249,-0.025C0.266,-0.035 0.282,-0.048 0.298,-0.063C0.314,-0.078 0.328,-0.095 0.341,-0.112C0.354,-0.129 0.363,-0.144 0.369,-0.159L0.382,-0.149C0.369,-0.121 0.352,-0.093 0.33,-0.067C0.308,-0.04 0.284,-0.017 0.257,-0C0.23,0.017 0.202,0.026 0.173,0.026Z" style="fill-rule:nonzero;"/>
            </g>
            <g transform="matrix(1200,0,0,1200,7096.76,5121.61)">
                <path d="M0.048,0.047C0.027,0.047 0.01,0.04 -0.005,0.027C-0.019,0.013 -0.026,-0.008 -0.026,-0.036C-0.026,-0.06 -0.021,-0.086 -0.01,-0.114C0.001,-0.141 0.015,-0.169 0.034,-0.196C0.053,-0.223 0.074,-0.247 0.098,-0.27C0.121,-0.292 0.146,-0.31 0.173,-0.323C0.199,-0.336 0.225,-0.343 0.251,-0.343C0.277,-0.343 0.299,-0.336 0.316,-0.323C0.333,-0.309 0.342,-0.291 0.342,-0.268C0.342,-0.251 0.338,-0.24 0.329,-0.234C0.32,-0.228 0.308,-0.225 0.293,-0.225C0.294,-0.23 0.296,-0.236 0.297,-0.243C0.298,-0.249 0.298,-0.255 0.298,-0.26C0.298,-0.275 0.294,-0.289 0.287,-0.3C0.28,-0.311 0.267,-0.316 0.249,-0.316C0.23,-0.316 0.211,-0.31 0.192,-0.297C0.173,-0.284 0.154,-0.266 0.136,-0.245C0.118,-0.223 0.102,-0.199 0.088,-0.174C0.074,-0.149 0.063,-0.124 0.055,-0.099C0.047,-0.074 0.043,-0.052 0.043,-0.033C0.043,-0.007 0.052,0.006 0.07,0.006C0.085,0.006 0.102,-0.001 0.12,-0.016C0.138,-0.03 0.157,-0.048 0.176,-0.071C0.195,-0.093 0.213,-0.116 0.23,-0.14C0.247,-0.164 0.263,-0.186 0.276,-0.206C0.279,-0.21 0.28,-0.212 0.281,-0.212C0.285,-0.211 0.29,-0.21 0.297,-0.208C0.303,-0.206 0.308,-0.203 0.313,-0.2C0.318,-0.197 0.32,-0.192 0.32,-0.187C0.32,-0.181 0.317,-0.173 0.311,-0.163C0.305,-0.152 0.298,-0.14 0.291,-0.127C0.284,-0.114 0.277,-0.1 0.271,-0.087C0.265,-0.073 0.262,-0.06 0.262,-0.048C0.262,-0.038 0.265,-0.028 0.27,-0.019C0.275,-0.009 0.284,-0.004 0.296,-0.004C0.314,-0.004 0.338,-0.017 0.367,-0.044C0.396,-0.07 0.426,-0.109 0.456,-0.162L0.466,-0.152C0.452,-0.116 0.434,-0.084 0.412,-0.057C0.39,-0.03 0.367,-0.008 0.342,0.007C0.317,0.022 0.292,0.03 0.268,0.03C0.243,0.03 0.225,0.023 0.214,0.008C0.202,-0.007 0.196,-0.023 0.196,-0.04C0.196,-0.044 0.196,-0.048 0.197,-0.054C0.198,-0.058 0.198,-0.064 0.199,-0.069C0.17,-0.03 0.144,-0.001 0.121,0.018C0.097,0.037 0.073,0.047 0.048,0.047Z" style="fill-rule:nonzero;"/>
            </g>
            <g transform="matrix(1200,0,0,1200,7619.96,5121.61)">
                <path d="M0.107,0.056C0.075,0.056 0.048,0.045 0.027,0.024C0.006,0.003 -0.005,-0.029 -0.005,-0.072C-0.005,-0.105 0.002,-0.138 0.015,-0.17C0.028,-0.201 0.045,-0.23 0.066,-0.255C0.087,-0.28 0.111,-0.301 0.137,-0.316C0.163,-0.331 0.189,-0.338 0.214,-0.338C0.241,-0.338 0.26,-0.33 0.27,-0.314C0.28,-0.298 0.285,-0.281 0.285,-0.264C0.285,-0.245 0.281,-0.228 0.272,-0.213C0.263,-0.198 0.25,-0.191 0.235,-0.191C0.224,-0.191 0.214,-0.196 0.206,-0.206C0.216,-0.211 0.225,-0.222 0.232,-0.239C0.239,-0.255 0.243,-0.27 0.243,-0.285C0.243,-0.293 0.242,-0.299 0.239,-0.304C0.236,-0.308 0.23,-0.31 0.221,-0.31C0.203,-0.31 0.185,-0.302 0.166,-0.286C0.147,-0.27 0.129,-0.249 0.113,-0.224C0.096,-0.199 0.083,-0.172 0.073,-0.144C0.062,-0.116 0.057,-0.09 0.057,-0.065C0.057,-0.044 0.062,-0.025 0.072,-0.008C0.082,0.009 0.101,0.018 0.13,0.018C0.157,0.018 0.184,0.011 0.211,-0.004C0.238,-0.019 0.263,-0.04 0.286,-0.067C0.309,-0.094 0.328,-0.126 0.342,-0.163L0.355,-0.153C0.34,-0.113 0.319,-0.077 0.292,-0.046C0.265,-0.014 0.236,0.011 0.204,0.029C0.172,0.047 0.14,0.056 0.107,0.056Z" style="fill-rule:nonzero;"/>
            </g>
            <g transform="matrix(1200,0,0,1200,8007.56,5121.61)">
                <path d="M0.072,0.026C0.046,0.026 0.027,0.018 0.014,0.002C0.001,-0.015 -0.005,-0.035 -0.005,-0.058C-0.005,-0.073 -0.002,-0.093 0.004,-0.116C0.009,-0.139 0.017,-0.164 0.026,-0.19C0.035,-0.215 0.046,-0.239 0.059,-0.262C0.071,-0.285 0.084,-0.303 0.098,-0.318C0.112,-0.332 0.126,-0.339 0.139,-0.339C0.145,-0.339 0.15,-0.337 0.155,-0.334C0.159,-0.33 0.161,-0.324 0.161,-0.317C0.161,-0.309 0.156,-0.296 0.146,-0.278C0.135,-0.26 0.123,-0.239 0.109,-0.216C0.095,-0.193 0.083,-0.168 0.073,-0.143C0.062,-0.117 0.057,-0.092 0.057,-0.069C0.057,-0.045 0.061,-0.029 0.069,-0.021C0.077,-0.013 0.089,-0.009 0.106,-0.009C0.129,-0.009 0.153,-0.02 0.179,-0.043C0.204,-0.066 0.231,-0.105 0.26,-0.162L0.269,-0.152C0.25,-0.095 0.222,-0.051 0.186,-0.02C0.149,0.011 0.111,0.026 0.072,0.026ZM0.192,-0.432C0.181,-0.432 0.172,-0.435 0.164,-0.44C0.155,-0.445 0.151,-0.454 0.151,-0.465C0.151,-0.479 0.159,-0.491 0.176,-0.502C0.192,-0.512 0.208,-0.517 0.224,-0.517C0.234,-0.517 0.242,-0.515 0.248,-0.51C0.254,-0.505 0.257,-0.497 0.257,-0.486C0.257,-0.473 0.25,-0.461 0.237,-0.45C0.223,-0.438 0.208,-0.432 0.192,-0.432Z" style="fill-rule:nonzero;"/>
            </g>
            <g transform="matrix(1200,0,0,1200,8296.76,5121.61)">
                <path d="M0.083,0.03C0.054,0.03 0.034,0.02 0.022,0.001C0.009,-0.019 0.003,-0.044 0.003,-0.073C0.003,-0.105 0.009,-0.143 0.021,-0.187C0.033,-0.231 0.049,-0.277 0.069,-0.326C0.088,-0.375 0.11,-0.422 0.133,-0.469C0.156,-0.515 0.18,-0.557 0.203,-0.595C0.226,-0.633 0.248,-0.663 0.268,-0.686C0.287,-0.709 0.303,-0.72 0.314,-0.72C0.321,-0.72 0.327,-0.716 0.332,-0.708C0.337,-0.699 0.34,-0.689 0.343,-0.678C0.346,-0.666 0.347,-0.655 0.347,-0.646C0.347,-0.628 0.343,-0.604 0.334,-0.576C0.325,-0.547 0.312,-0.514 0.296,-0.479C0.279,-0.443 0.26,-0.407 0.238,-0.371C0.215,-0.334 0.191,-0.299 0.165,-0.266C0.138,-0.233 0.11,-0.204 0.081,-0.18C0.077,-0.162 0.074,-0.145 0.072,-0.128C0.069,-0.111 0.068,-0.094 0.068,-0.079C0.068,-0.053 0.072,-0.034 0.079,-0.021C0.086,-0.008 0.097,-0.002 0.112,-0.002C0.13,-0.002 0.148,-0.01 0.166,-0.026C0.183,-0.042 0.2,-0.062 0.216,-0.087C0.231,-0.111 0.245,-0.136 0.256,-0.162L0.271,-0.154C0.244,-0.097 0.215,-0.053 0.184,-0.02C0.153,0.013 0.119,0.03 0.083,0.03ZM0.09,-0.214C0.113,-0.237 0.136,-0.264 0.158,-0.295C0.18,-0.325 0.201,-0.356 0.22,-0.389C0.239,-0.422 0.255,-0.453 0.27,-0.484C0.285,-0.515 0.296,-0.542 0.304,-0.567C0.312,-0.591 0.316,-0.61 0.316,-0.623C0.316,-0.63 0.315,-0.634 0.314,-0.636C0.312,-0.638 0.31,-0.639 0.309,-0.639C0.304,-0.639 0.295,-0.631 0.282,-0.614C0.269,-0.596 0.253,-0.574 0.236,-0.545C0.219,-0.516 0.201,-0.484 0.183,-0.447C0.165,-0.41 0.148,-0.372 0.132,-0.332C0.115,-0.292 0.101,-0.253 0.09,-0.214Z" style="fill-rule:nonzero;"/>
            </g>
            <g transform="matrix(1200,0,0,1200,8579.96,5121.61)">
                <path d="M0.108,0.044C0.067,0.044 0.037,0.033 0.017,0.011C-0.004,-0.012 -0.014,-0.039 -0.014,-0.072C-0.014,-0.102 -0.007,-0.134 0.009,-0.167C0.024,-0.2 0.044,-0.232 0.069,-0.261C0.093,-0.29 0.121,-0.314 0.151,-0.333C0.181,-0.351 0.211,-0.36 0.24,-0.36C0.255,-0.36 0.27,-0.356 0.283,-0.348C0.296,-0.34 0.302,-0.324 0.302,-0.299C0.302,-0.274 0.295,-0.25 0.28,-0.228C0.265,-0.205 0.245,-0.185 0.221,-0.168C0.196,-0.151 0.169,-0.137 0.141,-0.126C0.112,-0.115 0.083,-0.108 0.054,-0.105C0.053,-0.098 0.052,-0.092 0.051,-0.086C0.05,-0.08 0.05,-0.074 0.05,-0.069C0.05,-0.059 0.051,-0.049 0.054,-0.039C0.056,-0.029 0.06,-0.02 0.066,-0.012C0.072,-0.003 0.08,0.003 0.091,0.008C0.101,0.013 0.114,0.015 0.129,0.015C0.158,0.015 0.186,0.007 0.214,-0.01C0.242,-0.026 0.268,-0.047 0.292,-0.074C0.316,-0.101 0.336,-0.13 0.353,-0.162L0.365,-0.153C0.347,-0.113 0.324,-0.078 0.297,-0.049C0.269,-0.02 0.239,0.003 0.207,0.02C0.174,0.036 0.141,0.044 0.108,0.044ZM0.059,-0.124C0.077,-0.13 0.097,-0.139 0.12,-0.151C0.143,-0.162 0.165,-0.176 0.186,-0.192C0.206,-0.208 0.224,-0.226 0.238,-0.245C0.251,-0.264 0.258,-0.285 0.258,-0.306C0.258,-0.313 0.257,-0.319 0.254,-0.323C0.251,-0.327 0.246,-0.329 0.237,-0.329C0.221,-0.329 0.204,-0.323 0.186,-0.311C0.168,-0.298 0.151,-0.282 0.134,-0.262C0.117,-0.242 0.102,-0.22 0.089,-0.196C0.076,-0.172 0.066,-0.148 0.059,-0.124Z" style="fill-rule:nonzero;"/>
            </g>
        </g>
        <g transform="matrix(-0.505277,-0.978614,0.875165,-0.565003,6212.46,13502.3)">
            <g transform="matrix(600,0,0,600,4480.69,1768.06)">
                <path d="M0.255,0.187C0.217,0.187 0.185,0.179 0.158,0.163C0.131,0.147 0.117,0.124 0.117,0.093C0.117,0.076 0.122,0.061 0.132,0.048C0.141,0.035 0.156,0.025 0.177,0.018C0.174,0.028 0.172,0.038 0.171,0.047C0.17,0.056 0.169,0.065 0.169,0.072C0.169,0.099 0.176,0.121 0.191,0.138C0.206,0.154 0.227,0.162 0.256,0.162C0.283,0.162 0.307,0.155 0.328,0.142C0.349,0.129 0.367,0.111 0.382,0.09C0.397,0.068 0.41,0.044 0.421,0.019C0.432,-0.006 0.441,-0.031 0.448,-0.056C0.455,-0.081 0.461,-0.102 0.465,-0.121C0.47,-0.144 0.476,-0.173 0.484,-0.21C0.491,-0.246 0.498,-0.285 0.507,-0.326C0.48,-0.275 0.45,-0.234 0.415,-0.201C0.38,-0.167 0.338,-0.151 0.29,-0.151C0.251,-0.151 0.223,-0.162 0.206,-0.185C0.189,-0.207 0.181,-0.235 0.181,-0.27C0.181,-0.296 0.185,-0.324 0.192,-0.355C0.199,-0.386 0.206,-0.417 0.215,-0.448C0.224,-0.478 0.232,-0.508 0.239,-0.537C0.246,-0.566 0.249,-0.591 0.249,-0.614C0.249,-0.635 0.245,-0.654 0.237,-0.669C0.228,-0.684 0.213,-0.692 0.192,-0.692C0.173,-0.692 0.157,-0.686 0.144,-0.675C0.131,-0.663 0.119,-0.648 0.111,-0.63C0.101,-0.612 0.095,-0.593 0.091,-0.574C0.086,-0.554 0.084,-0.536 0.084,-0.519C0.084,-0.51 0.085,-0.501 0.086,-0.492C0.087,-0.483 0.089,-0.476 0.092,-0.47C0.067,-0.47 0.049,-0.477 0.039,-0.491C0.028,-0.504 0.023,-0.52 0.023,-0.539C0.023,-0.56 0.028,-0.581 0.038,-0.602C0.048,-0.623 0.062,-0.643 0.08,-0.661C0.097,-0.678 0.118,-0.693 0.141,-0.704C0.164,-0.715 0.188,-0.72 0.214,-0.72C0.239,-0.72 0.26,-0.715 0.275,-0.705C0.29,-0.694 0.301,-0.681 0.308,-0.666C0.315,-0.651 0.318,-0.635 0.318,-0.619C0.318,-0.6 0.315,-0.577 0.308,-0.55C0.301,-0.522 0.293,-0.493 0.284,-0.462C0.275,-0.432 0.268,-0.402 0.261,-0.372C0.254,-0.342 0.251,-0.314 0.251,-0.287C0.251,-0.258 0.257,-0.235 0.268,-0.218C0.279,-0.2 0.296,-0.191 0.321,-0.191C0.344,-0.191 0.366,-0.198 0.387,-0.213C0.408,-0.228 0.427,-0.247 0.445,-0.272C0.463,-0.297 0.479,-0.324 0.494,-0.353C0.509,-0.382 0.522,-0.411 0.533,-0.44C0.542,-0.476 0.551,-0.511 0.561,-0.545C0.57,-0.578 0.58,-0.608 0.59,-0.635C0.6,-0.661 0.61,-0.682 0.621,-0.697C0.632,-0.712 0.642,-0.72 0.653,-0.72C0.66,-0.72 0.668,-0.717 0.679,-0.712C0.69,-0.706 0.7,-0.698 0.709,-0.688C0.695,-0.666 0.683,-0.645 0.673,-0.626C0.663,-0.606 0.654,-0.584 0.645,-0.561C0.635,-0.538 0.626,-0.51 0.617,-0.479C0.608,-0.447 0.597,-0.408 0.586,-0.362C0.574,-0.316 0.56,-0.26 0.544,-0.194C0.535,-0.16 0.526,-0.125 0.516,-0.089C0.506,-0.053 0.494,-0.019 0.48,0.014C0.465,0.047 0.448,0.076 0.428,0.102C0.408,0.128 0.384,0.149 0.356,0.164C0.327,0.179 0.294,0.187 0.255,0.187Z" style="fill-rule:nonzero;"/>
            </g>
        </g>
    </g>
</svg>